<svg width="800" height="121" viewBox="0 0 800 121" fill="none" xmlns="http://www.w3.org/2000/svg">
<path d="M14.3359 19.3418C14.3359 20.4421 14.196 21.4447 13.916 22.3496C13.6361 23.248 13.2194 24.0228 12.666 24.6738C12.1191 25.3184 11.4388 25.8164 10.625 26.168C9.8112 26.5195 8.86719 26.6953 7.79297 26.6953C6.6862 26.6953 5.7194 26.5195 4.89258 26.168C4.07227 25.8164 3.38867 25.3151 2.8418 24.6641C2.30143 24.013 1.89453 23.235 1.62109 22.3301C1.35417 21.4251 1.2207 20.4225 1.2207 19.3223C1.2207 17.8639 1.46159 16.5846 1.94336 15.4844C2.42513 14.3841 3.1543 13.528 4.13086 12.916C5.11393 12.304 6.3444 11.998 7.82227 11.998C9.23503 11.998 10.4232 12.3008 11.3867 12.9062C12.3568 13.5117 13.0892 14.3646 13.584 15.4648C14.0853 16.5586 14.3359 17.8509 14.3359 19.3418ZM2.96875 19.3418C2.96875 20.5527 3.14128 21.6009 3.48633 22.4863C3.83138 23.3717 4.35872 24.0553 5.06836 24.5371C5.78451 25.0189 6.69271 25.2598 7.79297 25.2598C8.89974 25.2598 9.80469 25.0189 10.5078 24.5371C11.2174 24.0553 11.7415 23.3717 12.0801 22.4863C12.4186 21.6009 12.5879 20.5527 12.5879 19.3418C12.5879 17.4993 12.2005 16.0605 11.4258 15.0254C10.6576 13.9837 9.45638 13.4629 7.82227 13.4629C6.71549 13.4629 5.80404 13.7005 5.08789 14.1758C4.37174 14.651 3.83789 15.3281 3.48633 16.207C3.14128 17.0794 2.96875 18.1243 2.96875 19.3418ZM26.1133 15.7969V26.5H24.7852L24.5508 24.9961H24.4629C24.2415 25.3672 23.9551 25.6797 23.6035 25.9336C23.252 26.1875 22.8548 26.3763 22.4121 26.5C21.9759 26.6302 21.5104 26.6953 21.0156 26.6953C20.1693 26.6953 19.4596 26.5586 18.8867 26.2852C18.3138 26.0117 17.8809 25.5885 17.5879 25.0156C17.3014 24.4427 17.1582 23.707 17.1582 22.8086V15.7969H18.7988V22.6914C18.7988 23.5833 19.0007 24.2507 19.4043 24.6934C19.8079 25.1296 20.4232 25.3477 21.25 25.3477C22.0443 25.3477 22.6758 25.1979 23.1445 24.8984C23.6198 24.599 23.9616 24.1595 24.1699 23.5801C24.3783 22.9941 24.4824 22.278 24.4824 21.4316V15.7969H26.1133ZM34.4043 15.6016C34.6191 15.6016 34.8438 15.6146 35.0781 15.6406C35.3125 15.6602 35.5208 15.6895 35.7031 15.7285L35.498 17.2324C35.3223 17.1868 35.127 17.151 34.9121 17.125C34.6973 17.099 34.4954 17.0859 34.3066 17.0859C33.877 17.0859 33.4701 17.1738 33.0859 17.3496C32.7083 17.5189 32.3763 17.7663 32.0898 18.0918C31.8034 18.4108 31.5788 18.7982 31.416 19.2539C31.2533 19.7031 31.1719 20.2044 31.1719 20.7578V26.5H29.541V15.7969H30.8887L31.0645 17.7695H31.1328C31.3542 17.3724 31.6211 17.0111 31.9336 16.6855C32.2461 16.3535 32.6074 16.0898 33.0176 15.8945C33.4342 15.6992 33.8965 15.6016 34.4043 15.6016ZM45.2734 26.5L41.2109 15.7969H42.9492L45.3027 22.2715C45.4655 22.7142 45.6315 23.2025 45.8008 23.7363C45.9701 24.2702 46.0872 24.6999 46.1523 25.0254H46.2207C46.2988 24.6999 46.429 24.2702 46.6113 23.7363C46.7936 23.196 46.9596 22.7077 47.1094 22.2715L49.4629 15.7969H51.2012L47.1289 26.5H45.2734ZM56.9238 15.6211C58.1999 15.6211 59.1471 15.9076 59.7656 16.4805C60.3841 17.0534 60.6934 17.9681 60.6934 19.2246V26.5H59.5117L59.1992 24.918H59.1211C58.8216 25.3086 58.5091 25.6374 58.1836 25.9043C57.8581 26.1647 57.4805 26.3633 57.0508 26.5C56.6276 26.6302 56.1068 26.6953 55.4883 26.6953C54.8372 26.6953 54.2578 26.5814 53.75 26.3535C53.2487 26.1257 52.8516 25.7806 52.5586 25.3184C52.2721 24.8561 52.1289 24.2702 52.1289 23.5605C52.1289 22.4928 52.5521 21.6725 53.3984 21.0996C54.2448 20.5267 55.5339 20.2142 57.2656 20.1621L59.1113 20.084V19.4297C59.1113 18.5052 58.9128 17.8574 58.5156 17.4863C58.1185 17.1152 57.5586 16.9297 56.8359 16.9297C56.276 16.9297 55.7422 17.0111 55.2344 17.1738C54.7266 17.3366 54.2448 17.5286 53.7891 17.75L53.291 16.5195C53.7728 16.2721 54.3262 16.0605 54.9512 15.8848C55.5762 15.709 56.2337 15.6211 56.9238 15.6211ZM59.0918 21.2266L57.4609 21.2949C56.1263 21.347 55.1855 21.5651 54.6387 21.9492C54.0918 22.3333 53.8184 22.877 53.8184 23.5801C53.8184 24.1921 54.0039 24.6445 54.375 24.9375C54.7461 25.2305 55.2376 25.377 55.8496 25.377C56.8001 25.377 57.5781 25.1133 58.1836 24.5859C58.7891 24.0586 59.0918 23.2676 59.0918 22.2129V21.2266ZM65.6641 26.5H64.0332V11.3047H65.6641V26.5ZM77.9297 15.7969V26.5H76.6016L76.3672 24.9961H76.2793C76.0579 25.3672 75.7715 25.6797 75.4199 25.9336C75.0684 26.1875 74.6712 26.3763 74.2285 26.5C73.7923 26.6302 73.3268 26.6953 72.832 26.6953C71.9857 26.6953 71.276 26.5586 70.7031 26.2852C70.1302 26.0117 69.6973 25.5885 69.4043 25.0156C69.1178 24.4427 68.9746 23.707 68.9746 22.8086V15.7969H70.6152V22.6914C70.6152 23.5833 70.8171 24.2507 71.2207 24.6934C71.6243 25.1296 72.2396 25.3477 73.0664 25.3477C73.8607 25.3477 74.4922 25.1979 74.9609 24.8984C75.4362 24.599 75.778 24.1595 75.9863 23.5801C76.1947 22.9941 76.2988 22.278 76.2988 21.4316V15.7969H77.9297ZM85.4785 15.6016C86.39 15.6016 87.1712 15.8034 87.8223 16.207C88.4733 16.6107 88.9714 17.1771 89.3164 17.9062C89.6615 18.6289 89.834 19.4753 89.834 20.4453V21.4512H82.4414C82.4609 22.7077 82.7734 23.6647 83.3789 24.3223C83.9844 24.9798 84.8372 25.3086 85.9375 25.3086C86.6146 25.3086 87.2135 25.2467 87.7344 25.123C88.2552 24.9993 88.7956 24.8171 89.3555 24.5762V26.002C88.8151 26.2428 88.278 26.4186 87.7441 26.5293C87.2168 26.64 86.5918 26.6953 85.8691 26.6953C84.8405 26.6953 83.9421 26.487 83.1738 26.0703C82.4121 25.6471 81.8197 25.0286 81.3965 24.2148C80.9733 23.401 80.7617 22.4049 80.7617 21.2266C80.7617 20.0742 80.9538 19.0781 81.3379 18.2383C81.7285 17.3919 82.2754 16.7409 82.9785 16.2852C83.6882 15.8294 84.5215 15.6016 85.4785 15.6016ZM85.459 16.9297C84.5931 16.9297 83.903 17.2129 83.3887 17.7793C82.8743 18.3457 82.5684 19.1367 82.4707 20.1523H88.1348C88.1283 19.5143 88.0273 18.9544 87.832 18.4727C87.6432 17.9844 87.3535 17.6068 86.9629 17.3398C86.5723 17.0664 86.071 16.9297 85.459 16.9297ZM99.5117 23.5703C99.5117 24.2539 99.3392 24.8301 98.9941 25.2988C98.6556 25.7611 98.1673 26.1094 97.5293 26.3438C96.8978 26.5781 96.1426 26.6953 95.2637 26.6953C94.515 26.6953 93.8672 26.6367 93.3203 26.5195C92.7734 26.4023 92.2949 26.2363 91.8848 26.0215V24.5273C92.321 24.7422 92.8418 24.9375 93.4473 25.1133C94.0527 25.2891 94.6712 25.377 95.3027 25.377C96.2272 25.377 96.8978 25.2272 97.3145 24.9277C97.7311 24.6283 97.9395 24.2214 97.9395 23.707C97.9395 23.4141 97.8548 23.1569 97.6855 22.9355C97.5228 22.7077 97.2461 22.4896 96.8555 22.2812C96.4648 22.0664 95.9245 21.832 95.2344 21.5781C94.5508 21.3177 93.9583 21.0605 93.457 20.8066C92.9622 20.5462 92.5781 20.2305 92.3047 19.8594C92.0378 19.4883 91.9043 19.0065 91.9043 18.4141C91.9043 17.5091 92.2689 16.8158 92.998 16.334C93.7337 15.8457 94.6973 15.6016 95.8887 15.6016C96.5332 15.6016 97.1354 15.6667 97.6953 15.7969C98.2617 15.9206 98.7891 16.0898 99.2773 16.3047L98.7305 17.6035C98.2878 17.4147 97.8158 17.2552 97.3145 17.125C96.8132 16.9948 96.3021 16.9297 95.7812 16.9297C95.0326 16.9297 94.4564 17.0534 94.0527 17.3008C93.6556 17.5482 93.457 17.8867 93.457 18.3164C93.457 18.6484 93.5482 18.9219 93.7305 19.1367C93.9193 19.3516 94.2188 19.5534 94.6289 19.7422C95.0391 19.931 95.5794 20.1523 96.25 20.4062C96.9206 20.6536 97.5 20.9108 97.9883 21.1777C98.4766 21.4382 98.8509 21.7572 99.1113 22.1348C99.3783 22.5059 99.5117 22.9844 99.5117 23.5703Z" fill="white"/>
<path d="M12.552 100.5V69.324H0.48V65.94H28.152V69.324H16.08V100.5H12.552ZM50.7206 100.5V87.276C50.7206 85.836 50.5846 84.516 50.3126 83.316C50.0406 82.1 49.6006 81.044 48.9926 80.148C48.4006 79.236 47.6246 78.532 46.6646 78.036C45.7206 77.54 44.5686 77.292 43.2086 77.292C41.9606 77.292 40.8566 77.508 39.8966 77.94C38.9526 78.372 38.1526 78.996 37.4966 79.812C36.8566 80.612 36.3686 81.588 36.0326 82.74C35.6966 83.892 35.5286 85.204 35.5286 86.676L33.0326 86.124C33.0326 83.468 33.4966 81.236 34.4246 79.428C35.3526 77.62 36.6326 76.252 38.2646 75.324C39.8966 74.396 41.7686 73.932 43.8806 73.932C45.4326 73.932 46.7846 74.172 47.9366 74.652C49.1046 75.132 50.0886 75.78 50.8886 76.596C51.7046 77.412 52.3606 78.348 52.8566 79.404C53.3526 80.444 53.7126 81.556 53.9366 82.74C54.1606 83.908 54.2726 85.076 54.2726 86.244V100.5H50.7206ZM31.9766 100.5V65.94H35.1686V85.452H35.5286V100.5H31.9766ZM60.9806 69.66V65.7H64.5086V69.66H60.9806ZM60.9806 100.5V74.58H64.5086V100.5H60.9806ZM90.4238 100.5V87.276C90.4238 85.836 90.2878 84.516 90.0158 83.316C89.7438 82.1 89.3038 81.044 88.6958 80.148C88.1038 79.236 87.3278 78.532 86.3678 78.036C85.4238 77.54 84.2718 77.292 82.9118 77.292C81.6638 77.292 80.5598 77.508 79.5998 77.94C78.6558 78.372 77.8558 78.996 77.1998 79.812C76.5598 80.612 76.0718 81.588 75.7358 82.74C75.3998 83.892 75.2318 85.204 75.2318 86.676L72.7358 86.124C72.7358 83.468 73.1998 81.236 74.1278 79.428C75.0558 77.62 76.3358 76.252 77.9678 75.324C79.5998 74.396 81.4718 73.932 83.5838 73.932C85.1358 73.932 86.4878 74.172 87.6398 74.652C88.8078 75.132 89.7918 75.78 90.5918 76.596C91.4078 77.412 92.0638 78.348 92.5598 79.404C93.0558 80.444 93.4158 81.556 93.6398 82.74C93.8638 83.908 93.9758 85.076 93.9758 86.244V100.5H90.4238ZM71.6798 100.5V74.58H74.8718V80.964H75.2318V100.5H71.6798ZM110.5 112.74C109.172 112.74 107.86 112.54 106.564 112.14C105.284 111.756 104.1 111.14 103.012 110.292C101.924 109.46 101.012 108.372 100.276 107.028L103.468 105.252C104.188 106.692 105.196 107.724 106.492 108.348C107.804 108.988 109.14 109.308 110.5 109.308C112.372 109.308 113.884 108.956 115.036 108.252C116.204 107.564 117.052 106.54 117.58 105.18C118.108 103.82 118.364 102.124 118.348 100.092V93.18H118.756V74.58H121.9V100.14C121.9 100.876 121.876 101.58 121.828 102.252C121.796 102.94 121.724 103.612 121.612 104.268C121.308 106.204 120.676 107.796 119.716 109.044C118.772 110.292 117.524 111.22 115.972 111.828C114.436 112.436 112.612 112.74 110.5 112.74ZM110.26 101.22C107.844 101.22 105.78 100.62 104.068 99.42C102.356 98.204 101.044 96.564 100.132 94.5C99.2198 92.436 98.7638 90.108 98.7638 87.516C98.7638 84.94 99.2118 82.62 100.108 80.556C101.02 78.492 102.324 76.86 104.02 75.66C105.716 74.46 107.748 73.86 110.116 73.86C112.548 73.86 114.596 74.452 116.26 75.636C117.924 76.82 119.18 78.444 120.028 80.508C120.892 82.556 121.324 84.892 121.324 87.516C121.324 90.092 120.9 92.42 120.052 94.5C119.204 96.564 117.956 98.204 116.308 99.42C114.66 100.62 112.644 101.22 110.26 101.22ZM110.62 97.932C112.46 97.932 113.98 97.484 115.18 96.588C116.38 95.692 117.276 94.46 117.868 92.892C118.46 91.308 118.756 89.516 118.756 87.516C118.756 85.484 118.46 83.692 117.868 82.14C117.276 80.572 116.38 79.348 115.18 78.468C113.996 77.588 112.5 77.148 110.692 77.148C108.836 77.148 107.3 77.604 106.084 78.516C104.868 79.428 103.964 80.668 103.372 82.236C102.796 83.804 102.508 85.564 102.508 87.516C102.508 89.484 102.804 91.26 103.396 92.844C104.004 94.412 104.908 95.652 106.108 96.564C107.308 97.476 108.812 97.932 110.62 97.932ZM138.282 101.196C135.242 101.196 132.738 100.54 130.77 99.228C128.818 97.916 127.618 96.092 127.17 93.756L130.77 93.156C131.154 94.628 132.026 95.804 133.386 96.684C134.762 97.548 136.458 97.98 138.474 97.98C140.442 97.98 141.994 97.572 143.13 96.756C144.266 95.924 144.834 94.796 144.834 93.372C144.834 92.572 144.65 91.924 144.282 91.428C143.93 90.916 143.202 90.444 142.098 90.012C140.994 89.58 139.346 89.068 137.154 88.476C134.802 87.836 132.962 87.196 131.634 86.556C130.306 85.916 129.362 85.18 128.802 84.348C128.242 83.5 127.962 82.468 127.962 81.252C127.962 79.78 128.378 78.492 129.21 77.388C130.042 76.268 131.194 75.404 132.666 74.796C134.138 74.172 135.85 73.86 137.802 73.86C139.754 73.86 141.498 74.18 143.034 74.82C144.586 75.444 145.834 76.324 146.778 77.46C147.722 78.596 148.282 79.916 148.458 81.42L144.858 82.068C144.618 80.548 143.858 79.348 142.578 78.468C141.314 77.572 139.706 77.108 137.754 77.076C135.914 77.028 134.418 77.38 133.266 78.132C132.114 78.868 131.538 79.852 131.538 81.084C131.538 81.772 131.746 82.364 132.162 82.86C132.578 83.34 133.33 83.796 134.418 84.228C135.522 84.66 137.09 85.132 139.122 85.644C141.506 86.252 143.378 86.892 144.738 87.564C146.098 88.236 147.066 89.028 147.642 89.94C148.218 90.852 148.506 91.98 148.506 93.324C148.506 95.772 147.594 97.7 145.77 99.108C143.962 100.5 141.466 101.196 138.282 101.196ZM163.918 69.66V65.7H167.446V69.66H163.918ZM163.918 100.5V74.58H167.446V100.5H163.918ZM193.361 100.5V87.276C193.361 85.836 193.225 84.516 192.953 83.316C192.681 82.1 192.241 81.044 191.633 80.148C191.041 79.236 190.265 78.532 189.305 78.036C188.361 77.54 187.209 77.292 185.849 77.292C184.601 77.292 183.497 77.508 182.537 77.94C181.593 78.372 180.793 78.996 180.137 79.812C179.497 80.612 179.009 81.588 178.673 82.74C178.337 83.892 178.169 85.204 178.169 86.676L175.673 86.124C175.673 83.468 176.137 81.236 177.065 79.428C177.993 77.62 179.273 76.252 180.905 75.324C182.537 74.396 184.409 73.932 186.521 73.932C188.073 73.932 189.425 74.172 190.577 74.652C191.745 75.132 192.729 75.78 193.529 76.596C194.345 77.412 195.001 78.348 195.497 79.404C195.993 80.444 196.353 81.556 196.577 82.74C196.801 83.908 196.913 85.076 196.913 86.244V100.5H193.361ZM174.617 100.5V74.58H177.809V80.964H178.169V100.5H174.617ZM218.271 100.5L210.351 74.556L213.879 74.58L220.023 94.716L226.191 74.58H229.407L235.575 94.716L241.767 74.58H245.271L237.351 100.5H234.279L227.799 79.86L221.343 100.5H218.271ZM259.625 101.22C257.097 101.22 254.905 100.66 253.049 99.54C251.209 98.42 249.777 96.844 248.753 94.812C247.729 92.78 247.217 90.396 247.217 87.66C247.217 84.828 247.721 82.38 248.729 80.316C249.737 78.252 251.153 76.66 252.977 75.54C254.817 74.42 256.985 73.86 259.481 73.86C262.041 73.86 264.225 74.452 266.033 75.636C267.841 76.804 269.209 78.484 270.137 80.676C271.065 82.868 271.489 85.484 271.409 88.524H267.809V87.276C267.745 83.916 267.017 81.38 265.625 79.668C264.249 77.956 262.233 77.1 259.577 77.1C256.793 77.1 254.657 78.004 253.169 79.812C251.697 81.62 250.961 84.196 250.961 87.54C250.961 90.804 251.697 93.34 253.169 95.148C254.657 96.94 256.761 97.836 259.481 97.836C261.337 97.836 262.953 97.412 264.329 96.564C265.721 95.7 266.817 94.46 267.617 92.844L270.905 94.116C269.881 96.372 268.369 98.124 266.369 99.372C264.385 100.604 262.137 101.22 259.625 101.22ZM249.713 88.524V85.572H269.513V88.524H249.713ZM297.984 101.22C295.6 101.22 293.584 100.62 291.936 99.42C290.288 98.204 289.04 96.564 288.192 94.5C287.344 92.42 286.92 90.092 286.92 87.516C286.92 84.892 287.344 82.556 288.192 80.508C289.056 78.444 290.32 76.82 291.984 75.636C293.648 74.452 295.696 73.86 298.128 73.86C300.496 73.86 302.528 74.46 304.224 75.66C305.92 76.86 307.216 78.492 308.112 80.556C309.024 82.62 309.48 84.94 309.48 87.516C309.48 90.108 309.024 92.436 308.112 94.5C307.2 96.564 305.888 98.204 304.176 99.42C302.464 100.62 300.4 101.22 297.984 101.22ZM286.32 100.5V65.94H289.872V80.988H289.488V100.5H286.32ZM297.624 97.932C299.432 97.932 300.936 97.476 302.136 96.564C303.336 95.652 304.232 94.412 304.824 92.844C305.432 91.26 305.736 89.484 305.736 87.516C305.736 85.564 305.44 83.804 304.848 82.236C304.256 80.668 303.352 79.428 302.136 78.516C300.936 77.604 299.408 77.148 297.552 77.148C295.744 77.148 294.24 77.588 293.04 78.468C291.856 79.348 290.968 80.572 290.376 82.14C289.784 83.692 289.488 85.484 289.488 87.516C289.488 89.516 289.784 91.308 290.376 92.892C290.968 94.46 291.864 95.692 293.064 96.588C294.264 97.484 295.784 97.932 297.624 97.932ZM325.719 101.22C323.191 101.22 320.999 100.66 319.143 99.54C317.303 98.42 315.871 96.844 314.847 94.812C313.823 92.78 313.311 90.396 313.311 87.66C313.311 84.828 313.815 82.38 314.823 80.316C315.831 78.252 317.247 76.66 319.071 75.54C320.911 74.42 323.079 73.86 325.575 73.86C328.135 73.86 330.319 74.452 332.127 75.636C333.935 76.804 335.303 78.484 336.231 80.676C337.159 82.868 337.583 85.484 337.503 88.524H333.903V87.276C333.839 83.916 333.111 81.38 331.719 79.668C330.343 77.956 328.327 77.1 325.671 77.1C322.887 77.1 320.751 78.004 319.263 79.812C317.791 81.62 317.055 84.196 317.055 87.54C317.055 90.804 317.791 93.34 319.263 95.148C320.751 96.94 322.855 97.836 325.575 97.836C327.431 97.836 329.047 97.412 330.423 96.564C331.815 95.7 332.911 94.46 333.711 92.844L336.999 94.116C335.975 96.372 334.463 98.124 332.463 99.372C330.479 100.604 328.231 101.22 325.719 101.22ZM315.807 88.524V85.572H335.607V88.524H315.807ZM343.309 100.5V65.22H346.837V100.5H343.309ZM354.512 69.66V65.7H358.04V69.66H354.512ZM354.512 100.5V74.58H358.04V100.5H354.512ZM376.203 101.22C373.675 101.22 371.483 100.66 369.627 99.54C367.787 98.42 366.355 96.844 365.331 94.812C364.307 92.78 363.795 90.396 363.795 87.66C363.795 84.828 364.299 82.38 365.307 80.316C366.315 78.252 367.731 76.66 369.555 75.54C371.395 74.42 373.563 73.86 376.059 73.86C378.619 73.86 380.803 74.452 382.611 75.636C384.419 76.804 385.787 78.484 386.715 80.676C387.643 82.868 388.067 85.484 387.987 88.524H384.387V87.276C384.323 83.916 383.595 81.38 382.203 79.668C380.827 77.956 378.811 77.1 376.155 77.1C373.371 77.1 371.235 78.004 369.747 79.812C368.275 81.62 367.539 84.196 367.539 87.54C367.539 90.804 368.275 93.34 369.747 95.148C371.235 96.94 373.339 97.836 376.059 97.836C377.915 97.836 379.531 97.412 380.907 96.564C382.299 95.7 383.395 94.46 384.195 92.844L387.483 94.116C386.459 96.372 384.947 98.124 382.947 99.372C380.963 100.604 378.715 101.22 376.203 101.22ZM366.291 88.524V85.572H386.091V88.524H366.291ZM399.384 100.5L389.976 74.58H393.552L401.208 95.892L408.816 74.58H412.44L403.032 100.5H399.384ZM426.781 101.22C424.253 101.22 422.061 100.66 420.205 99.54C418.365 98.42 416.933 96.844 415.909 94.812C414.885 92.78 414.373 90.396 414.373 87.66C414.373 84.828 414.877 82.38 415.885 80.316C416.893 78.252 418.309 76.66 420.133 75.54C421.973 74.42 424.141 73.86 426.637 73.86C429.197 73.86 431.381 74.452 433.189 75.636C434.997 76.804 436.365 78.484 437.293 80.676C438.221 82.868 438.645 85.484 438.565 88.524H434.965V87.276C434.901 83.916 434.173 81.38 432.781 79.668C431.405 77.956 429.389 77.1 426.733 77.1C423.949 77.1 421.813 78.004 420.325 79.812C418.853 81.62 418.117 84.196 418.117 87.54C418.117 90.804 418.853 93.34 420.325 95.148C421.813 96.94 423.917 97.836 426.637 97.836C428.493 97.836 430.109 97.412 431.485 96.564C432.877 95.7 433.973 94.46 434.773 92.844L438.061 94.116C437.037 96.372 435.525 98.124 433.525 99.372C431.541 100.604 429.293 101.22 426.781 101.22ZM416.869 88.524V85.572H436.669V88.524H416.869Z" fill="white"/>
</svg>
